<?xml version="1.0" encoding="UTF-8"?>
<svg xmlns="http://www.w3.org/2000/svg" xmlns:xlink="http://www.w3.org/1999/xlink" width="16px" height="16px" viewBox="0 0 16 16" version="1.1">
<defs>
<clipPath id="clip1">
  <path d="M 8 8 L 14 8 L 14 14 L 8 14 Z M 8 8 "/>
</clipPath>
<clipPath id="clip2">
  <path d="M 14.578125 14.578125 C 10.59375 14.492188 5.40625 14.492188 1.421875 14.578125 C 1.507812 10.59375 1.507812 5.40625 1.421875 1.421875 C 5.40625 1.507812 10.59375 1.507812 14.578125 1.421875 C 14.492188 5.40625 14.492188 10.59375 14.578125 14.578125 Z M 14.578125 14.578125 "/>
</clipPath>
<clipPath id="clip3">
  <path d="M 2 2 L 8 2 L 8 8 L 2 8 Z M 2 2 "/>
</clipPath>
<clipPath id="clip4">
  <path d="M 14.578125 14.578125 C 10.59375 14.492188 5.40625 14.492188 1.421875 14.578125 C 1.507812 10.59375 1.507812 5.40625 1.421875 1.421875 C 5.40625 1.507812 10.59375 1.507812 14.578125 1.421875 C 14.492188 5.40625 14.492188 10.59375 14.578125 14.578125 Z M 14.578125 14.578125 "/>
</clipPath>
<clipPath id="clip5">
  <path d="M 5 1 L 15 1 L 15 11 L 5 11 Z M 5 1 "/>
</clipPath>
<clipPath id="clip6">
  <path d="M 14.578125 14.578125 C 10.59375 14.492188 5.40625 14.492188 1.421875 14.578125 C 1.507812 10.59375 1.507812 5.40625 1.421875 1.421875 C 5.40625 1.507812 10.59375 1.507812 14.578125 1.421875 C 14.492188 5.40625 14.492188 10.59375 14.578125 14.578125 Z M 14.578125 14.578125 "/>
</clipPath>
<clipPath id="clip7">
  <path d="M 1 5 L 11 5 L 11 15 L 1 15 Z M 1 5 "/>
</clipPath>
<clipPath id="clip8">
  <path d="M 14.578125 14.578125 C 10.59375 14.492188 5.40625 14.492188 1.421875 14.578125 C 1.507812 10.59375 1.507812 5.40625 1.421875 1.421875 C 5.40625 1.507812 10.59375 1.507812 14.578125 1.421875 C 14.492188 5.40625 14.492188 10.59375 14.578125 14.578125 Z M 14.578125 14.578125 "/>
</clipPath>
</defs>
<g id="surface1">
<g clip-path="url(#clip1)" clip-rule="nonzero">
<g clip-path="url(#clip2)" clip-rule="nonzero">
<path style=" stroke:none;fill-rule:nonzero;fill:rgb(96.470588%,82.745098%,35.686275%);fill-opacity:1;" d="M 8 11.429688 C 8.777344 12.191406 9.582031 12.96875 10.390625 13.742188 C 11.554688 12.632812 12.632812 11.554688 13.742188 10.390625 C 12.964844 9.582031 12.1875 8.777344 11.433594 8 C 10.285156 9.167969 9.167969 10.285156 8 11.429688 Z M 8 11.429688 "/>
</g>
</g>
<g clip-path="url(#clip3)" clip-rule="nonzero">
<g clip-path="url(#clip4)" clip-rule="nonzero">
<path style=" stroke:none;fill-rule:nonzero;fill:rgb(87.45098%,34.117647%,27.058824%);fill-opacity:1;" d="M 8 4.570312 C 7.222656 3.808594 6.417969 3.03125 5.609375 2.257812 C 4.445312 3.367188 3.367188 4.445312 2.257812 5.609375 C 3.035156 6.417969 3.8125 7.222656 4.566406 8 C 5.714844 6.832031 6.832031 5.714844 8 4.570312 Z M 8 4.570312 "/>
</g>
</g>
<g clip-path="url(#clip5)" clip-rule="nonzero">
<g clip-path="url(#clip6)" clip-rule="nonzero">
<path style=" stroke:none;fill-rule:nonzero;fill:rgb(0%,67.45098%,42.352941%);fill-opacity:1;" d="M 13.742188 5.609375 C 12.632812 4.445312 11.554688 3.367188 10.390625 2.257812 C 9.621094 1.515625 8.8125 0.761719 8 0 C 7.1875 0.761719 6.378906 1.515625 5.609375 2.257812 C 6.417969 3.035156 7.222656 3.8125 8 4.566406 C 9.167969 5.714844 10.285156 6.832031 11.429688 8 C 12.191406 8.777344 12.96875 9.582031 13.742188 10.390625 C 14.484375 9.621094 15.238281 8.8125 16 8 C 15.238281 7.1875 14.484375 6.378906 13.742188 5.609375 Z M 13.742188 5.609375 "/>
</g>
</g>
<g clip-path="url(#clip7)" clip-rule="nonzero">
<g clip-path="url(#clip8)" clip-rule="nonzero">
<path style=" stroke:none;fill-rule:nonzero;fill:rgb(42.745098%,58.823529%,95.686275%);fill-opacity:1;" d="M 4.570312 8 C 3.808594 7.222656 3.03125 6.417969 2.257812 5.609375 C 1.515625 6.378906 0.761719 7.1875 0 8 C 0.761719 8.8125 1.515625 9.621094 2.257812 10.390625 C 3.367188 11.554688 4.445312 12.632812 5.609375 13.742188 C 6.378906 14.484375 7.1875 15.238281 8 16 C 8.8125 15.238281 9.621094 14.484375 10.390625 13.742188 C 9.582031 12.964844 8.777344 12.1875 8 11.433594 C 6.832031 10.285156 5.714844 9.167969 4.570312 8 Z M 4.570312 8 "/>
</g>
</g>
</g>
</svg>
