<?xml version="1.0" encoding="UTF-8"?>
<svg xmlns="http://www.w3.org/2000/svg" xmlns:xlink="http://www.w3.org/1999/xlink" width="80px" height="80px" viewBox="0 0 80 80" version="1.1">
<defs>
<clipPath id="clip1">
  <path d="M 40 40 L 69 40 L 69 69 L 40 69 Z M 40 40 "/>
</clipPath>
<clipPath id="clip2">
  <path d="M 72.890625 72.890625 C 52.96875 72.460938 27.039062 72.460938 7.109375 72.890625 C 7.539062 52.96875 7.539062 27.039062 7.109375 7.109375 C 27.03125 7.539062 52.960938 7.539062 72.890625 7.109375 C 72.460938 27.039062 72.460938 52.960938 72.890625 72.890625 Z M 72.890625 72.890625 "/>
</clipPath>
<clipPath id="clip3">
  <path d="M 11 11 L 40 11 L 40 40 L 11 40 Z M 11 11 "/>
</clipPath>
<clipPath id="clip4">
  <path d="M 72.890625 72.890625 C 52.96875 72.460938 27.039062 72.460938 7.109375 72.890625 C 7.539062 52.96875 7.539062 27.039062 7.109375 7.109375 C 27.03125 7.539062 52.960938 7.539062 72.890625 7.109375 C 72.460938 27.039062 72.460938 52.960938 72.890625 72.890625 Z M 72.890625 72.890625 "/>
</clipPath>
<clipPath id="clip5">
  <path d="M 28 7 L 73 7 L 73 52 L 28 52 Z M 28 7 "/>
</clipPath>
<clipPath id="clip6">
  <path d="M 72.890625 72.890625 C 52.96875 72.460938 27.039062 72.460938 7.109375 72.890625 C 7.539062 52.96875 7.539062 27.039062 7.109375 7.109375 C 27.03125 7.539062 52.960938 7.539062 72.890625 7.109375 C 72.460938 27.039062 72.460938 52.960938 72.890625 72.890625 Z M 72.890625 72.890625 "/>
</clipPath>
<clipPath id="clip7">
  <path d="M 7 28 L 52 28 L 52 73 L 7 73 Z M 7 28 "/>
</clipPath>
<clipPath id="clip8">
  <path d="M 72.890625 72.890625 C 52.96875 72.460938 27.039062 72.460938 7.109375 72.890625 C 7.539062 52.96875 7.539062 27.039062 7.109375 7.109375 C 27.03125 7.539062 52.960938 7.539062 72.890625 7.109375 C 72.460938 27.039062 72.460938 52.960938 72.890625 72.890625 Z M 72.890625 72.890625 "/>
</clipPath>
</defs>
<g id="surface1">
<g clip-path="url(#clip1)" clip-rule="nonzero">
<g clip-path="url(#clip2)" clip-rule="nonzero">
<path style=" stroke:none;fill-rule:nonzero;fill:rgb(96.470588%,82.745098%,35.686275%);fill-opacity:1;" d="M 40 57.148438 C 43.882812 60.949219 47.910156 64.835938 51.957031 68.703125 C 57.777344 63.171875 63.171875 57.777344 68.71875 51.957031 C 64.828125 47.910156 60.941406 43.894531 57.164062 40 C 51.421875 45.847656 45.847656 51.421875 40 57.148438 Z M 40 57.148438 "/>
</g>
</g>
<g clip-path="url(#clip3)" clip-rule="nonzero">
<g clip-path="url(#clip4)" clip-rule="nonzero">
<path style=" stroke:none;fill-rule:nonzero;fill:rgb(87.45098%,34.117647%,27.058824%);fill-opacity:1;" d="M 40 22.851562 C 36.117188 19.050781 32.089844 15.164062 28.042969 11.296875 C 22.222656 16.828125 16.828125 22.222656 11.28125 28.042969 C 15.171875 32.089844 19.058594 36.105469 22.835938 40 C 28.578125 34.152344 34.152344 28.578125 40 22.851562 Z M 40 22.851562 "/>
</g>
</g>
<g clip-path="url(#clip5)" clip-rule="nonzero">
<g clip-path="url(#clip6)" clip-rule="nonzero">
<path style=" stroke:none;fill-rule:nonzero;fill:rgb(0%,67.45098%,42.352941%);fill-opacity:1;" d="M 68.71875 28.042969 C 63.171875 22.222656 57.777344 16.828125 51.957031 11.28125 C 48.097656 7.582031 44.070312 3.8125 40 0 C 35.929688 3.8125 31.902344 7.582031 28.042969 11.28125 C 32.089844 15.171875 36.105469 19.058594 40 22.835938 C 45.847656 28.578125 51.421875 34.152344 57.148438 40 C 60.949219 43.882812 64.835938 47.910156 68.703125 51.957031 C 72.417969 48.097656 76.1875 44.070312 80 40 C 76.1875 35.929688 72.417969 31.902344 68.71875 28.042969 Z M 68.71875 28.042969 "/>
</g>
</g>
<g clip-path="url(#clip7)" clip-rule="nonzero">
<g clip-path="url(#clip8)" clip-rule="nonzero">
<path style=" stroke:none;fill-rule:nonzero;fill:rgb(42.745098%,58.823529%,95.686275%);fill-opacity:1;" d="M 22.851562 40 C 19.050781 36.117188 15.164062 32.089844 11.296875 28.042969 C 7.582031 31.902344 3.8125 35.929688 0 40 C 3.8125 44.070312 7.582031 48.097656 11.28125 51.957031 C 16.828125 57.777344 22.222656 63.171875 28.042969 68.71875 C 31.902344 72.417969 35.929688 76.1875 40 80 C 44.070312 76.1875 48.097656 72.417969 51.957031 68.71875 C 47.910156 64.828125 43.894531 60.941406 40 57.164062 C 34.152344 51.421875 28.578125 45.847656 22.851562 40 Z M 22.851562 40 "/>
</g>
</g>
</g>
</svg>
