<?xml version="1.0" encoding="UTF-8"?>
<svg xmlns="http://www.w3.org/2000/svg" xmlns:xlink="http://www.w3.org/1999/xlink" width="40px" height="40px" viewBox="0 0 40 40" version="1.1">
<defs>
<clipPath id="clip1">
  <path d="M 20 20 L 35 20 L 35 35 L 20 35 Z M 20 20 "/>
</clipPath>
<clipPath id="clip2">
  <path d="M 36.445312 36.445312 C 26.484375 36.230469 13.519531 36.230469 3.554688 36.445312 C 3.769531 26.484375 3.769531 13.519531 3.554688 3.554688 C 13.515625 3.769531 26.480469 3.769531 36.445312 3.554688 C 36.230469 13.519531 36.230469 26.480469 36.445312 36.445312 Z M 36.445312 36.445312 "/>
</clipPath>
<clipPath id="clip3">
  <path d="M 5 5 L 20 5 L 20 20 L 5 20 Z M 5 5 "/>
</clipPath>
<clipPath id="clip4">
  <path d="M 36.445312 36.445312 C 26.484375 36.230469 13.519531 36.230469 3.554688 36.445312 C 3.769531 26.484375 3.769531 13.519531 3.554688 3.554688 C 13.515625 3.769531 26.480469 3.769531 36.445312 3.554688 C 36.230469 13.519531 36.230469 26.480469 36.445312 36.445312 Z M 36.445312 36.445312 "/>
</clipPath>
<clipPath id="clip5">
  <path d="M 14 3 L 37 3 L 37 26 L 14 26 Z M 14 3 "/>
</clipPath>
<clipPath id="clip6">
  <path d="M 36.445312 36.445312 C 26.484375 36.230469 13.519531 36.230469 3.554688 36.445312 C 3.769531 26.484375 3.769531 13.519531 3.554688 3.554688 C 13.515625 3.769531 26.480469 3.769531 36.445312 3.554688 C 36.230469 13.519531 36.230469 26.480469 36.445312 36.445312 Z M 36.445312 36.445312 "/>
</clipPath>
<clipPath id="clip7">
  <path d="M 3 14 L 26 14 L 26 37 L 3 37 Z M 3 14 "/>
</clipPath>
<clipPath id="clip8">
  <path d="M 36.445312 36.445312 C 26.484375 36.230469 13.519531 36.230469 3.554688 36.445312 C 3.769531 26.484375 3.769531 13.519531 3.554688 3.554688 C 13.515625 3.769531 26.480469 3.769531 36.445312 3.554688 C 36.230469 13.519531 36.230469 26.480469 36.445312 36.445312 Z M 36.445312 36.445312 "/>
</clipPath>
</defs>
<g id="surface1">
<g clip-path="url(#clip1)" clip-rule="nonzero">
<g clip-path="url(#clip2)" clip-rule="nonzero">
<path style=" stroke:none;fill-rule:nonzero;fill:rgb(96.470588%,82.745098%,35.686275%);fill-opacity:1;" d="M 20 28.574219 C 21.941406 30.476562 23.957031 32.417969 25.976562 34.351562 C 28.890625 31.585938 31.585938 28.890625 34.359375 25.976562 C 32.414062 23.957031 30.472656 21.945312 28.582031 20 C 25.710938 22.925781 22.925781 25.710938 20 28.574219 Z M 20 28.574219 "/>
</g>
</g>
<g clip-path="url(#clip3)" clip-rule="nonzero">
<g clip-path="url(#clip4)" clip-rule="nonzero">
<path style=" stroke:none;fill-rule:nonzero;fill:rgb(87.45098%,34.117647%,27.058824%);fill-opacity:1;" d="M 20 11.425781 C 18.058594 9.523438 16.042969 7.582031 14.023438 5.648438 C 11.109375 8.414062 8.414062 11.109375 5.640625 14.023438 C 7.585938 16.042969 9.527344 18.054688 11.417969 20 C 14.289062 17.074219 17.074219 14.289062 20 11.425781 Z M 20 11.425781 "/>
</g>
</g>
<g clip-path="url(#clip5)" clip-rule="nonzero">
<g clip-path="url(#clip6)" clip-rule="nonzero">
<path style=" stroke:none;fill-rule:nonzero;fill:rgb(0%,67.45098%,42.352941%);fill-opacity:1;" d="M 34.359375 14.023438 C 31.585938 11.109375 28.890625 8.414062 25.976562 5.640625 C 24.050781 3.792969 22.035156 1.90625 20 0 C 17.964844 1.90625 15.949219 3.792969 14.023438 5.640625 C 16.042969 7.585938 18.054688 9.527344 20 11.417969 C 22.925781 14.289062 25.710938 17.074219 28.574219 20 C 30.476562 21.941406 32.417969 23.957031 34.351562 25.976562 C 36.207031 24.050781 38.09375 22.035156 40 20 C 38.09375 17.964844 36.207031 15.949219 34.359375 14.023438 Z M 34.359375 14.023438 "/>
</g>
</g>
<g clip-path="url(#clip7)" clip-rule="nonzero">
<g clip-path="url(#clip8)" clip-rule="nonzero">
<path style=" stroke:none;fill-rule:nonzero;fill:rgb(42.745098%,58.823529%,95.686275%);fill-opacity:1;" d="M 11.425781 20 C 9.523438 18.058594 7.582031 16.042969 5.648438 14.023438 C 3.792969 15.949219 1.90625 17.964844 0 20 C 1.90625 22.035156 3.792969 24.050781 5.640625 25.976562 C 8.414062 28.890625 11.109375 31.585938 14.023438 34.359375 C 15.949219 36.207031 17.964844 38.09375 20 40 C 22.035156 38.09375 24.050781 36.207031 25.976562 34.359375 C 23.957031 32.414062 21.945312 30.472656 20 28.582031 C 17.074219 25.710938 14.289062 22.925781 11.425781 20 Z M 11.425781 20 "/>
</g>
</g>
</g>
</svg>
