<?xml version="1.0" encoding="UTF-8"?>
<svg xmlns="http://www.w3.org/2000/svg" xmlns:xlink="http://www.w3.org/1999/xlink" width="13px" height="13px" viewBox="0 0 13 12" version="1.1">
<defs>
<clipPath id="clip1">
  <path d="M 6 6 L 12 6 L 12 11 L 6 11 Z M 6 6 "/>
</clipPath>
<clipPath id="clip2">
  <path d="M 11.84375 10.933594 C 8.609375 10.871094 4.394531 10.871094 1.15625 10.933594 C 1.226562 7.945312 1.226562 4.054688 1.15625 1.066406 C 4.390625 1.128906 8.605469 1.128906 11.84375 1.066406 C 11.773438 4.054688 11.773438 7.945312 11.84375 10.933594 Z M 11.84375 10.933594 "/>
</clipPath>
<clipPath id="clip3">
  <path d="M 1 1 L 7 1 L 7 6 L 1 6 Z M 1 1 "/>
</clipPath>
<clipPath id="clip4">
  <path d="M 11.84375 10.933594 C 8.609375 10.871094 4.394531 10.871094 1.15625 10.933594 C 1.226562 7.945312 1.226562 4.054688 1.15625 1.066406 C 4.390625 1.128906 8.605469 1.128906 11.84375 1.066406 C 11.773438 4.054688 11.773438 7.945312 11.84375 10.933594 Z M 11.84375 10.933594 "/>
</clipPath>
<clipPath id="clip5">
  <path d="M 4 1 L 12 1 L 12 8 L 4 8 Z M 4 1 "/>
</clipPath>
<clipPath id="clip6">
  <path d="M 11.84375 10.933594 C 8.609375 10.871094 4.394531 10.871094 1.15625 10.933594 C 1.226562 7.945312 1.226562 4.054688 1.15625 1.066406 C 4.390625 1.128906 8.605469 1.128906 11.84375 1.066406 C 11.773438 4.054688 11.773438 7.945312 11.84375 10.933594 Z M 11.84375 10.933594 "/>
</clipPath>
<clipPath id="clip7">
  <path d="M 1 4 L 9 4 L 9 11 L 1 11 Z M 1 4 "/>
</clipPath>
<clipPath id="clip8">
  <path d="M 11.84375 10.933594 C 8.609375 10.871094 4.394531 10.871094 1.15625 10.933594 C 1.226562 7.945312 1.226562 4.054688 1.15625 1.066406 C 4.390625 1.128906 8.605469 1.128906 11.84375 1.066406 C 11.773438 4.054688 11.773438 7.945312 11.84375 10.933594 Z M 11.84375 10.933594 "/>
</clipPath>
</defs>
<g id="surface1">
<g clip-path="url(#clip1)" clip-rule="nonzero">
<g clip-path="url(#clip2)" clip-rule="nonzero">
<path style=" stroke:none;fill-rule:nonzero;fill:rgb(96.470588%,82.745098%,35.686275%);fill-opacity:1;" d="M 6.5 8.570312 C 7.132812 9.144531 7.785156 9.726562 8.441406 10.304688 C 9.390625 9.476562 10.265625 8.667969 11.167969 7.792969 C 10.535156 7.1875 9.902344 6.585938 9.289062 6 C 8.355469 6.878906 7.449219 7.714844 6.5 8.570312 Z M 6.5 8.570312 "/>
</g>
</g>
<g clip-path="url(#clip3)" clip-rule="nonzero">
<g clip-path="url(#clip4)" clip-rule="nonzero">
<path style=" stroke:none;fill-rule:nonzero;fill:rgb(87.45098%,34.117647%,27.058824%);fill-opacity:1;" d="M 6.5 3.429688 C 5.867188 2.855469 5.214844 2.273438 4.558594 1.695312 C 3.609375 2.523438 2.734375 3.332031 1.832031 4.207031 C 2.464844 4.8125 3.097656 5.414062 3.710938 6 C 4.644531 5.121094 5.550781 4.285156 6.5 3.429688 Z M 6.5 3.429688 "/>
</g>
</g>
<g clip-path="url(#clip5)" clip-rule="nonzero">
<g clip-path="url(#clip6)" clip-rule="nonzero">
<path style=" stroke:none;fill-rule:nonzero;fill:rgb(0%,67.45098%,42.352941%);fill-opacity:1;" d="M 11.167969 4.207031 C 10.265625 3.332031 9.390625 2.523438 8.441406 1.691406 C 7.816406 1.136719 7.160156 0.570312 6.5 0 C 5.839844 0.570312 5.183594 1.136719 4.558594 1.691406 C 5.214844 2.277344 5.867188 2.859375 6.5 3.425781 C 7.449219 4.285156 8.355469 5.121094 9.285156 6 C 9.90625 6.582031 10.535156 7.1875 11.164062 7.792969 C 11.769531 7.214844 12.378906 6.609375 13 6 C 12.378906 5.390625 11.769531 4.785156 11.167969 4.207031 Z M 11.167969 4.207031 "/>
</g>
</g>
<g clip-path="url(#clip7)" clip-rule="nonzero">
<g clip-path="url(#clip8)" clip-rule="nonzero">
<path style=" stroke:none;fill-rule:nonzero;fill:rgb(42.745098%,58.823529%,95.686275%);fill-opacity:1;" d="M 3.714844 6 C 3.09375 5.417969 2.464844 4.8125 1.835938 4.207031 C 1.230469 4.785156 0.621094 5.390625 0 6 C 0.621094 6.609375 1.230469 7.214844 1.832031 7.792969 C 2.734375 8.667969 3.609375 9.476562 4.558594 10.308594 C 5.183594 10.863281 5.839844 11.429688 6.5 12 C 7.160156 11.429688 7.816406 10.863281 8.441406 10.308594 C 7.785156 9.722656 7.132812 9.140625 6.5 8.574219 C 5.550781 7.714844 4.644531 6.878906 3.714844 6 Z M 3.714844 6 "/>
</g>
</g>
</g>
</svg>
